<?xml version="1.0" encoding="UTF-8" standalone="no" ?>
<!DOCTYPE svg PUBLIC "-//W3C//DTD SVG 1.1//EN" "http://www.w3.org/Graphics/SVG/1.1/DTD/svg11.dtd">
<svg xmlns="http://www.w3.org/2000/svg" xmlns:xlink="http://www.w3.org/1999/xlink" version="1.1" width="500" height="500" viewBox="43.67 1 500 500" xml:space="preserve">
<desc>Created with Fabric.js 4.2.0</desc>
<defs>
</defs>
<rect x="0" y="0" width="100%" height="100%" fill="transparent"></rect>
<g transform="matrix(Infinity NaN NaN Infinity 0 0)" id="4ef4e165-f169-409d-9a9e-98c51e8b25ac"  >
</g>
<g transform="matrix(1 0 0 1 250 250)" id="2651e544-1f1a-45fd-98f5-07ce24d5f9fb"  >
<rect style="stroke: none; stroke-width: 1; stroke-dasharray: none; stroke-linecap: butt; stroke-dashoffset: 0; stroke-linejoin: miter; stroke-miterlimit: 4; fill: rgb(255,255,255); fill-rule: nonzero; opacity: 1;" vector-effect="non-scaling-stroke"  x="-250" y="-250" rx="0" ry="0" width="500" height="500" />
</g>
<g transform="matrix(0.56 0 0 0.56 283.47 212.32)"  >
<path style="stroke: none; stroke-width: 1; stroke-dasharray: none; stroke-linecap: butt; stroke-dashoffset: 0; stroke-linejoin: miter; stroke-miterlimit: 4; fill: rgb(245,245,245); fill-rule: nonzero; opacity: 1;" vector-effect="non-scaling-stroke"  transform=" translate(-328.35, -290.9)" d="M 328.4 109.8 C 414.79999999999995 109.8 484.79999999999995 179.8 484.79999999999995 266.2 C 484.79999999999995 401.5 395.4 375.6 395.4 462.1 C 395.4 467.20000000000005 391.79999999999995 472 386.7 472 L 269.5 472 C 264.4 472 259.6 467.3 259.6 462.1 C 259.6 375.6 171.90000000000003 392.3 171.90000000000003 266.20000000000005 C 172 179.8 242 109.8 328.4 109.8" stroke-linecap="round" />
</g>
<g transform="matrix(0.56 0 0 0.56 294.81 225.31)"  >
<path style="stroke: none; stroke-width: 1; stroke-dasharray: none; stroke-linecap: butt; stroke-dashoffset: 0; stroke-linejoin: miter; stroke-miterlimit: 4; fill: rgb(255,0,0); fill-rule: nonzero; opacity: 1;" vector-effect="non-scaling-stroke"  transform=" translate(-328.4, -290.9)" d="M 328.4 109.8 C 414.79999999999995 109.8 484.79999999999995 179.8 484.79999999999995 266.2 C 484.79999999999995 401.5 395.4 375.6 395.4 462.1 C 395.4 467.20000000000005 391.79999999999995 472 386.7 472 L 269.5 472 C 264.4 472 259.6 467.3 259.6 462.1 C 259.6 375.6 171.90000000000003 392.3 171.90000000000003 266.20000000000005 C 172 179.8 242 109.8 328.4 109.8 M 328.4 86.6 C 304.2 86.6 280.59999999999997 91.39999999999999 258.5 100.69999999999999 C 237.1 109.69999999999999 217.9 122.69999999999999 201.4 139.2 C 184.9 155.7 172 174.89999999999998 162.9 196.29999999999998 C 153.5 218.49999999999997 148.8 242 148.8 266.2 C 148.8 300.8 154.9 329.4 167.5 353.4 C 178.7 374.7 192.9 389 205.5 401.59999999999997 C 224.1 420.2 236.4 432.49999999999994 236.4 462.09999999999997 C 236.4 479.99999999999994 251.6 495.2 269.5 495.2 L 386.7 495.2 C 404.3 495.2 418.59999999999997 480.4 418.59999999999997 462.09999999999997 C 418.59999999999997 433.79999999999995 429.79999999999995 423.49999999999994 448.4 406.49999999999994 C 461.59999999999997 394.29999999999995 476.59999999999997 380.59999999999997 488.4 358.59999999999997 C 501.59999999999997 333.99999999999994 508 303.79999999999995 508 266.29999999999995 C 508 242.09999999999997 503.2 218.49999999999994 493.9 196.39999999999995 C 484.9 174.99999999999994 471.9 155.79999999999995 455.4 139.29999999999995 C 438.9 122.79999999999995 419.7 109.89999999999995 398.29999999999995 100.79999999999995 C 376.2 91.3 352.6 86.6 328.4 86.6 L 328.4 86.6 z" stroke-linecap="round" />
</g>
<g transform="matrix(0.64 0 0 0.51 256.12 216.72)"  >
<path style="stroke: none; stroke-width: 1; stroke-dasharray: none; stroke-linecap: butt; stroke-dashoffset: 0; stroke-linejoin: miter; stroke-miterlimit: 4; fill: rgb(60,22,22); fill-rule: nonzero; opacity: 1;" vector-effect="non-scaling-stroke"  transform=" translate(-256.45, -279.2)" d="M 266.4 322.8 C 266.4 348.7 273.29999999999995 356.1 291.9 359.90000000000003 L 291.9 372.00000000000006 C 259.9 369.50000000000006 244.79999999999998 356.90000000000003 244.79999999999998 322.00000000000006 C 244.79999999999998 295.90000000000003 239.79999999999998 288.1000000000001 220.99999999999997 286.00000000000006 L 220.99999999999997 272.40000000000003 C 239.79999999999998 270.3 244.79999999999998 262.40000000000003 244.79999999999998 236.40000000000003 C 244.79999999999998 201.40000000000003 259.9 188.90000000000003 291.9 186.40000000000003 L 291.9 198.50000000000003 C 273.29999999999995 202.30000000000004 266.4 209.70000000000002 266.4 235.60000000000002 C 266.4 267.20000000000005 259 275 238.2 279.3 C 259 283.3 266.4 291.2 266.4 322.8 z" stroke-linecap="round" />
</g>
<g transform="matrix(0.56 0 0 0.56 295.64 349.19)"  >
<path style="stroke: none; stroke-width: 1; stroke-dasharray: none; stroke-linecap: butt; stroke-dashoffset: 0; stroke-linejoin: miter; stroke-miterlimit: 4; fill: rgb(255,0,0); fill-rule: nonzero; opacity: 1;" vector-effect="non-scaling-stroke"  transform=" translate(-325.9, -514.8)" d="M 403.3 514.8 C 403.3 521.4 395.6 526.6999999999999 386 526.6999999999999 L 265.8 526.6999999999999 C 256.3 526.6999999999999 248.5 521.4 248.5 514.8 L 248.5 514.8 C 248.5 508.19999999999993 256.2 502.9 265.8 502.9 L 386 502.9 C 395.6 502.9 403.3 508.2 403.3 514.8 L 403.3 514.8 z" stroke-linecap="round" />
</g>
<g transform="matrix(0.56 0 0 0.56 295.46 382.44)"  >
<path style="stroke: none; stroke-width: 1; stroke-dasharray: none; stroke-linecap: butt; stroke-dashoffset: 0; stroke-linejoin: miter; stroke-miterlimit: 4; fill: rgb(255,0,0); fill-rule: nonzero; opacity: 1;" vector-effect="non-scaling-stroke"  transform=" translate(-325.9, -578.6)" d="M 378.9 578.6 C 378.9 585.2 371.2 590.5 361.59999999999997 590.5 L 290.19999999999993 590.5 C 280.69999999999993 590.5 272.8999999999999 585.2 272.8999999999999 578.6 L 272.8999999999999 578.6 C 272.8999999999999 572 280.5999999999999 566.7 290.19999999999993 566.7 L 361.5999999999999 566.7 C 371.2 566.7 378.9 572 378.9 578.6 L 378.9 578.6 z" stroke-linecap="round" />
</g>
<g transform="matrix(0.56 0 0 0.56 295.64 365.53)"  >
<path style="stroke: none; stroke-width: 1; stroke-dasharray: none; stroke-linecap: butt; stroke-dashoffset: 0; stroke-linejoin: miter; stroke-miterlimit: 4; fill: rgb(255,0,0); fill-rule: nonzero; opacity: 1;" vector-effect="non-scaling-stroke"  transform=" translate(-325.9, -546.8)" d="M 403.3 546.8 C 403.3 553.4 395.6 558.6999999999999 386 558.6999999999999 L 265.8 558.6999999999999 C 256.3 558.6999999999999 248.5 553.4 248.5 546.8 L 248.5 546.8 C 248.5 540.1999999999999 256.2 534.9 265.8 534.9 L 386 534.9 C 395.6 534.9 403.3 540.2 403.3 546.8 L 403.3 546.8 z" stroke-linecap="round" />
</g>
<g transform="matrix(-0.64 0 0 -0.51 332.51 215.4)"  >
<path style="stroke: none; stroke-width: 1; stroke-dasharray: none; stroke-linecap: butt; stroke-dashoffset: 0; stroke-linejoin: miter; stroke-miterlimit: 4; fill: rgb(60,22,22); fill-rule: nonzero; opacity: 1;" vector-effect="non-scaling-stroke"  transform=" translate(-256.45, -279.2)" d="M 266.4 322.8 C 266.4 348.7 273.29999999999995 356.1 291.9 359.90000000000003 L 291.9 372.00000000000006 C 259.9 369.50000000000006 244.79999999999998 356.90000000000003 244.79999999999998 322.00000000000006 C 244.79999999999998 295.90000000000003 239.79999999999998 288.1000000000001 220.99999999999997 286.00000000000006 L 220.99999999999997 272.40000000000003 C 239.79999999999998 270.3 244.79999999999998 262.40000000000003 244.79999999999998 236.40000000000003 C 244.79999999999998 201.40000000000003 259.9 188.90000000000003 291.9 186.40000000000003 L 291.9 198.50000000000003 C 273.29999999999995 202.30000000000004 266.4 209.70000000000002 266.4 235.60000000000002 C 266.4 267.20000000000005 259 275 238.2 279.3 C 259 283.3 266.4 291.2 266.4 322.8 z" stroke-linecap="round" />
</g>
</svg>